<svg width="2362" height="602" viewBox="0 0 2362 602" fill="none" xmlns="http://www.w3.org/2000/svg">
<g clip-path="url(#clip0_200_657)">
<path d="M20.1758 182.976V419.024C20.1758 434.046 28.1721 447.96 41.2123 455.471L245.427 573.433C258.467 580.944 274.46 580.944 287.5 573.433L491.715 455.471C504.755 447.96 512.751 434.046 512.751 419.024V182.976C512.751 167.954 504.755 154.04 491.715 146.529L287.5 28.567C274.46 21.0558 258.467 21.0558 245.427 28.567L41.2123 146.529C28.2952 154.04 20.1758 167.954 20.1758 182.976Z" fill="#213147"/>
<path d="M311.12 346.744L281.964 426.658C281.103 428.874 281.103 431.337 281.964 433.553L332.034 571.093L389.977 537.601L320.47 346.744C318.87 342.311 312.719 342.311 311.12 346.744Z" fill="#12AAFF"/>
<path d="M369.432 212.282C367.832 207.849 361.681 207.849 360.082 212.282L330.926 292.196C330.065 294.412 330.065 296.875 330.926 299.091L412.981 524.303L470.924 490.81L369.432 212.282Z" fill="#12AAFF"/>
<path d="M266.463 37.3095C267.939 37.3095 269.293 37.6789 270.646 38.4177L491.591 166.107C494.175 167.585 495.774 170.294 495.774 173.249V428.628C495.774 431.583 494.175 434.292 491.591 435.77L270.646 563.582C269.416 564.321 267.939 564.691 266.463 564.691C264.987 564.691 263.634 564.321 262.28 563.582L41.458 435.893C38.8746 434.415 37.2753 431.706 37.2753 428.751V173.249C37.2753 170.294 38.8746 167.585 41.458 166.107L262.403 38.4177C263.634 37.6789 265.11 37.3095 266.463 37.3095ZM266.463 0C258.59 0 250.716 2.09327 243.704 6.15668L22.7589 133.846C8.73448 141.973 0 156.995 0 173.249V428.628C0 444.882 8.73448 460.027 22.7589 468.154L243.704 595.843C250.716 599.907 258.59 602 266.463 602C274.336 602 282.21 599.907 289.222 595.843L510.167 468.154C524.315 460.027 532.926 445.005 532.926 428.628V173.249C532.926 156.995 524.192 141.85 510.167 133.723L289.345 6.15668C282.21 2.09327 274.336 0 266.463 0Z" fill="#9DCCED"/>
<path d="M120.438 524.549L140.736 468.893L181.579 502.877L143.442 537.847L120.438 524.549Z" fill="#213147"/>
<path d="M247.887 155.025H191.912C187.729 155.025 183.916 157.611 182.562 161.551L62.4941 491.057L120.437 524.549L252.684 161.675C253.792 158.473 251.454 155.025 247.887 155.025Z" fill="white"/>
<path d="M345.934 155.025H289.959C285.777 155.025 281.963 157.611 280.61 161.551L143.441 537.848L201.384 571.34L350.608 161.798C351.839 158.473 349.378 155.025 345.934 155.025Z" fill="white"/>
<path d="M771.464 223.61C777 223.61 781.797 224.719 785.611 227.058C789.425 229.398 793.238 233.83 796.929 240.48L870.003 373.218C870.741 374.695 870.864 375.927 870.495 376.912C870.126 377.897 869.019 378.389 867.297 378.389H839.248C836.788 378.389 835.065 377.404 834.204 375.557L818.581 347.113H714.874L699.619 375.557C698.635 377.527 696.913 378.389 694.576 378.389H665.912C663.943 378.389 662.836 377.897 662.467 376.912C662.098 375.927 662.221 374.695 662.959 373.218L735.418 240.48C739.109 233.83 742.677 229.398 746.244 227.058C749.812 224.719 753.872 223.61 758.546 223.61H771.464ZM728.529 321.255H804.556L769.495 256.487C768.88 255.502 768.142 254.886 767.035 254.886H765.682C764.697 254.886 763.836 255.379 763.221 256.487L728.529 321.255Z" fill="white"/>
<path d="M1030.55 223.61C1047.52 223.61 1059.58 227.427 1066.96 235.062C1074.34 242.696 1078.03 254.024 1078.03 269.047V281.606C1078.03 294.289 1075.45 304.263 1070.28 311.651C1065.11 319.039 1056.75 323.718 1045.06 325.811L1082.83 372.602C1083.57 373.341 1083.81 374.449 1083.44 375.927C1083.2 377.404 1081.97 378.143 1079.88 378.143H1051.46C1049.49 378.143 1048.26 377.897 1047.52 377.527C1046.78 377.035 1046.05 376.296 1045.31 375.311L1010.37 329.382H939.018V373.341C939.018 376.542 937.419 378.143 934.22 378.143H910.354C906.91 378.143 905.311 376.542 905.311 373.341V230.26C905.311 225.827 907.525 223.61 911.954 223.61H1030.55ZM939.141 302.539H1023.66C1031.16 302.539 1036.45 300.938 1039.53 297.737C1042.6 294.535 1044.2 289.61 1044.2 282.961V273.726C1044.2 267.076 1042.6 262.151 1039.53 258.95C1036.45 255.748 1031.16 254.147 1023.66 254.147H941.971C940.002 254.147 939.141 255.009 939.141 256.856V302.539Z" fill="white"/>
<path d="M1262.69 223.61C1277.82 223.61 1288.64 226.689 1295.04 232.722C1301.44 238.756 1304.64 247.868 1304.64 260.058V270.647C1304.64 282.961 1299.96 292.319 1290.49 298.722C1300.58 304.632 1305.74 314.114 1305.74 327.166V339.972C1305.74 345.882 1305.13 351.177 1303.77 355.856C1302.42 360.535 1300.33 364.598 1297.25 367.923C1294.18 371.247 1290.24 373.833 1285.2 375.557C1280.15 377.281 1274 378.266 1266.62 378.266H1135.48C1131.05 378.266 1128.84 376.05 1128.84 371.617V230.26C1128.84 225.827 1131.05 223.61 1135.48 223.61H1262.69ZM1162.67 287.886H1253.21C1260.59 287.886 1265.52 286.778 1268.22 284.561C1270.93 282.345 1272.16 279.144 1272.16 274.834V267.323C1272.16 262.767 1270.93 259.442 1268.34 257.226C1265.76 255.133 1261.58 254.024 1255.92 254.024H1165.62C1163.65 254.024 1162.79 255.009 1162.79 256.856V287.886H1162.67ZM1162.67 312.02V344.897C1162.67 346.867 1163.65 347.729 1165.5 347.729H1256.04C1261.95 347.729 1266.13 346.621 1268.59 344.527C1271.05 342.434 1272.4 338.986 1272.4 334.307V325.934C1272.4 321.378 1271.05 317.931 1268.34 315.591C1265.64 313.252 1260.59 312.02 1253.21 312.02H1162.67Z" fill="white"/>
<path d="M1388.04 223.61C1391.24 223.61 1392.84 225.211 1392.84 228.413V373.341C1392.84 376.542 1391.24 378.143 1388.04 378.143H1364.18C1360.73 378.143 1359.13 376.542 1359.13 373.341V228.536C1359.13 225.334 1360.86 223.733 1364.18 223.733L1388.04 223.61Z" fill="white"/>
<path d="M1619.32 223.61C1622.77 223.61 1624.37 225.211 1624.37 228.413V250.084C1624.37 253.532 1622.64 255.133 1619.32 255.133H1550.06V373.341C1550.06 376.542 1548.46 378.143 1545.26 378.143H1521.15C1517.95 378.143 1516.35 376.542 1516.35 373.341V255.133H1447.09C1443.65 255.133 1442.05 253.409 1442.05 250.084V228.413C1442.05 225.211 1443.77 223.61 1447.09 223.61H1619.32Z" fill="white"/>
<path d="M1793.89 223.61C1810.87 223.61 1822.92 227.427 1830.3 235.062C1837.68 242.696 1841.38 254.024 1841.38 269.047V281.606C1841.38 294.289 1838.79 304.263 1833.63 311.651C1828.46 319.039 1820.09 323.718 1808.41 325.811L1846.17 372.602C1846.91 373.341 1847.16 374.449 1846.79 375.927C1846.54 377.404 1845.31 378.143 1843.22 378.143H1814.8C1812.83 378.143 1811.6 377.897 1810.87 377.527C1810.13 377.035 1809.39 376.296 1808.65 375.311L1773.71 329.382H1702.36V373.341C1702.36 376.542 1700.76 378.143 1697.56 378.143H1673.7C1670.25 378.143 1668.65 376.542 1668.65 373.341V230.26C1668.65 225.827 1670.87 223.61 1675.3 223.61H1793.89ZM1702.61 302.539H1787.12C1794.63 302.539 1799.92 300.938 1802.99 297.737C1806.07 294.535 1807.67 289.61 1807.67 282.961V273.726C1807.67 267.076 1806.07 262.151 1802.99 258.95C1799.92 255.748 1794.63 254.147 1787.12 254.147H1705.44C1703.47 254.147 1702.61 255.009 1702.61 256.856V302.539Z" fill="white"/>
<path d="M1918.02 223.61C1921.22 223.61 1922.82 225.211 1922.82 228.413V316.576C1922.82 322.487 1923.31 327.412 1924.29 331.229C1925.28 335.169 1926.87 338.248 1929.09 340.464C1931.3 342.804 1934.26 344.404 1938.07 345.266C1941.88 346.251 1946.56 346.744 1952.34 346.744H2013.48C2019.26 346.744 2023.94 346.251 2027.75 345.266C2031.57 344.281 2034.52 342.681 2036.73 340.464C2038.95 338.125 2040.55 335.046 2041.41 331.229C2042.27 327.289 2042.76 322.487 2042.76 316.576V228.413C2042.76 225.211 2044.36 223.61 2047.56 223.61H2071.67C2074.87 223.61 2076.47 225.211 2076.47 228.413V319.901C2076.47 330.49 2075.36 339.479 2073.15 346.99C2070.93 354.378 2067.36 360.412 2062.44 365.091C2057.52 369.77 2051.13 373.095 2043.25 375.188C2035.38 377.281 2025.91 378.266 2014.71 378.266H1951.11C1939.92 378.266 1930.44 377.281 1922.69 375.188C1914.94 373.095 1908.54 369.77 1903.62 365.091C1898.7 360.412 1895.14 354.378 1892.8 346.99C1890.46 339.602 1889.35 330.49 1889.35 319.901V228.413C1889.35 225.211 1891.08 223.61 1894.4 223.61H1918.02Z" fill="white"/>
<path d="M2171.32 223.61C2174.52 223.61 2177.35 223.857 2179.68 224.226C2182.02 224.719 2184.11 225.457 2185.83 226.812C2187.56 228.043 2189.16 229.767 2190.63 231.86C2191.99 233.954 2193.46 236.786 2194.94 240.357L2240.82 346.374C2241.44 347.729 2242.42 348.345 2243.9 348.345H2246.61C2248.08 348.345 2249.07 347.729 2249.68 346.374L2295.57 240.357C2297.05 236.786 2298.52 233.954 2299.87 231.86C2301.23 229.767 2302.83 228.043 2304.67 226.812C2306.39 225.58 2308.49 224.719 2310.7 224.226C2313.04 223.733 2315.74 223.61 2318.94 223.61H2342.56C2350.19 223.61 2355.36 225.334 2358.06 228.782C2360.77 232.23 2362 238.14 2362 246.513V373.341C2362 376.542 2360.28 378.143 2356.96 378.143H2334.44C2331.25 378.143 2329.65 376.542 2329.65 373.341V257.965C2329.65 256.487 2329.03 255.748 2327.92 255.748H2325.96C2324.48 255.748 2323.49 256.364 2323.13 257.472L2278.59 356.471C2276.87 360.412 2275.02 363.859 2273.18 366.568C2271.33 369.277 2269.37 371.494 2267.27 373.341C2265.18 375.065 2262.72 376.419 2260.02 377.158C2257.31 377.897 2254.11 378.266 2250.42 378.266H2239.84C2236.15 378.266 2232.95 377.897 2230.25 377.158C2227.54 376.419 2225.08 375.188 2222.99 373.341C2220.9 371.617 2218.8 369.277 2217.08 366.568C2215.24 363.859 2213.39 360.535 2211.67 356.471L2167.14 257.472C2166.64 256.241 2165.78 255.748 2164.31 255.748H2162.34C2161.11 255.748 2160.62 256.487 2160.62 257.965V373.341C2160.62 376.542 2159.02 378.143 2155.82 378.143H2133.3C2129.86 378.143 2128.26 376.542 2128.26 373.341V246.513C2128.26 238.14 2129.61 232.23 2132.2 228.782C2134.9 225.334 2140.07 223.61 2147.82 223.61H2171.32Z" fill="white"/>
</g>
<defs>
<clipPath id="clip0_200_657">
<rect width="2362" height="602" fill="white"/>
</clipPath>
</defs>
</svg>
