<svg width="2419" height="437" viewBox="0 0 2419 437" fill="none" xmlns="http://www.w3.org/2000/svg">
<path d="M825.192 339.99C803.815 339.99 784.334 334.738 766.749 324.239C749.316 313.593 735.442 299.043 725.134 280.59C714.978 261.991 709.899 240.845 709.899 217.144C709.899 194.045 714.826 173.346 724.68 155.046C734.534 136.597 748.105 122.047 765.387 111.398C782.821 100.598 802.756 95.1982 825.192 95.1982C841.718 95.1982 857.105 98.348 871.356 104.648C885.759 110.798 897.504 119.422 906.602 130.522V102.398H976.417V332.789H906.602V302.417C895.991 314.567 883.787 323.865 869.99 330.314C856.197 336.763 841.264 339.99 825.192 339.99ZM845.884 281.267C858.012 281.267 868.779 278.565 878.179 273.166C887.575 267.616 894.927 260.041 900.237 250.445C905.542 240.845 908.195 229.892 908.195 217.594C908.195 205.145 905.467 194.195 900.01 184.745C894.7 175.146 887.348 167.646 877.952 162.246C868.703 156.696 858.012 153.921 845.884 153.921C833.911 153.921 823.221 156.696 813.821 162.246C804.425 167.646 796.997 175.146 791.536 184.745C786.079 194.345 783.351 205.295 783.351 217.594C783.351 229.892 786.003 240.845 791.309 250.445C796.765 260.041 804.194 267.616 813.594 273.166C822.994 278.565 833.756 281.267 845.884 281.267Z" fill="#EDEDED"/>
<path d="M1058.53 332.789V102.398H1128.35V135.472C1136.99 122.572 1147.53 112.673 1159.96 105.773C1172.54 98.7232 1186.03 95.1982 1200.43 95.1982C1208.62 95.1982 1217.11 96.3982 1225.91 98.798C1234.7 101.198 1242.05 104.273 1247.96 108.023L1218.86 166.296C1213.7 162.846 1207.64 160.146 1200.66 158.196C1193.84 156.096 1187.47 155.046 1181.56 155.046C1172.47 155.046 1163.82 157.371 1155.64 162.021C1147.45 166.671 1140.86 172.746 1135.85 180.246C1130.85 187.595 1128.35 195.545 1128.35 204.095V332.789H1058.53Z" fill="#EDEDED"/>
<path d="M1393.08 339.99C1375.35 339.99 1358.6 336.839 1342.83 330.541C1327.22 324.239 1313.42 315.542 1301.44 304.442C1289.47 293.19 1280.07 280.216 1273.25 265.516C1266.42 250.668 1263.01 234.77 1263.01 217.819C1263.01 201.47 1266.2 185.945 1272.56 171.246C1279.08 156.546 1288.18 143.497 1299.85 132.097C1311.68 120.698 1325.47 111.698 1341.24 105.098C1357.16 98.498 1374.36 95.1982 1392.86 95.1982C1407.87 95.1982 1422.27 97.2981 1436.07 101.498C1450.01 105.698 1461.23 111.098 1469.72 117.697L1445.84 164.271C1434.47 156.021 1420.38 151.897 1403.55 151.897C1389.15 151.897 1376.94 155.046 1366.94 161.346C1356.93 167.646 1349.28 175.821 1343.97 185.87C1338.81 195.92 1336.23 206.494 1336.23 217.594C1336.23 229.745 1339.04 240.845 1344.65 250.895C1350.26 260.793 1358.14 268.667 1368.3 274.52C1378.61 280.368 1390.51 283.292 1404 283.292C1412.34 283.292 1420.15 282.166 1427.42 279.918C1434.7 277.666 1440.84 274.666 1445.84 270.919L1469.72 317.492C1461.08 323.941 1449.94 329.264 1436.29 333.465C1422.65 337.814 1408.25 339.99 1393.08 339.99Z" fill="#EDEDED"/>
<path d="M1621.1 339.99C1599.73 339.99 1580.25 334.738 1562.66 324.239C1545.23 313.593 1531.35 299.043 1521.05 280.59C1510.89 261.991 1505.81 240.845 1505.81 217.144C1505.81 194.045 1510.73 173.346 1520.59 155.046C1530.45 136.597 1544.01 122.047 1561.29 111.398C1578.73 100.598 1598.66 95.1982 1621.1 95.1982C1637.63 95.1982 1653.01 98.348 1667.26 104.648C1681.67 110.798 1693.42 119.422 1702.51 130.522V102.398H1772.32V332.789H1702.51V302.417C1691.9 314.567 1679.69 323.865 1665.9 330.314C1652.1 336.763 1637.17 339.99 1621.1 339.99ZM1641.8 281.267C1653.92 281.267 1664.69 278.565 1674.09 273.166C1683.49 267.616 1690.84 260.041 1696.14 250.445C1701.45 240.845 1704.1 229.892 1704.1 217.594C1704.1 205.145 1701.37 194.195 1695.92 184.745C1690.61 175.146 1683.26 167.646 1673.86 162.246C1664.61 156.696 1653.92 153.921 1641.8 153.921C1629.82 153.921 1619.13 156.696 1609.73 162.246C1600.33 167.646 1592.9 175.146 1587.45 184.745C1581.99 194.345 1579.26 205.295 1579.26 217.594C1579.26 229.892 1581.91 240.845 1587.22 250.445C1592.68 260.041 1600.11 267.616 1609.51 273.166C1618.91 278.565 1629.67 281.267 1641.8 281.267Z" fill="#EDEDED"/>
<path d="M1854.44 332.789V102.398H1924.25V128.047C1933.2 118.147 1944.35 110.198 1957.68 104.198C1971.18 98.1981 1986.04 95.1982 2002.25 95.1982C2020.15 95.1982 2035.84 99.098 2049.33 106.898C2062.97 114.547 2073.66 125.272 2081.39 139.072C2089.13 152.721 2092.99 168.696 2092.99 186.995V332.789H2023.18V201.62C2023.18 185.12 2018.78 172.296 2009.99 163.146C2001.35 153.846 1989.45 149.196 1974.29 149.196C1963.98 149.196 1955.03 151.297 1947.45 155.496C1940.02 159.546 1934.26 165.171 1930.17 172.371C1926.23 179.42 1924.25 187.445 1924.25 196.445V332.789H1854.44Z" fill="#EDEDED"/>
<path d="M2267.78 339.99C2246.4 339.99 2226.92 334.738 2209.34 324.239C2191.9 313.593 2178.03 299.043 2167.72 280.59C2157.56 261.991 2152.48 240.845 2152.48 217.144C2152.48 194.045 2157.41 173.346 2167.26 155.046C2177.12 136.597 2190.69 122.047 2207.97 111.398C2225.4 100.598 2245.34 95.1982 2267.78 95.1982C2284.3 95.1982 2299.69 98.348 2313.94 104.648C2328.34 110.798 2340.09 119.422 2349.19 130.522V102.398H2419V332.789H2349.19V302.417C2338.57 314.567 2326.37 323.865 2312.58 330.314C2298.78 336.763 2283.85 339.99 2267.78 339.99ZM2288.47 281.267C2300.6 281.267 2311.36 278.565 2320.76 273.166C2330.16 267.616 2337.51 260.041 2342.82 250.445C2348.13 240.845 2350.78 229.892 2350.78 217.594C2350.78 205.145 2348.05 194.195 2342.59 184.745C2337.29 175.146 2329.94 167.646 2320.54 162.246C2311.29 156.696 2300.6 153.921 2288.47 153.921C2276.49 153.921 2265.81 156.696 2256.41 162.246C2247.01 167.646 2239.58 175.146 2234.12 184.745C2228.66 194.345 2225.93 205.295 2225.93 217.594C2225.93 229.892 2228.59 240.845 2233.9 250.445C2239.35 260.041 2246.78 267.616 2256.18 273.166C2265.58 278.565 2276.34 281.267 2288.47 281.267Z" fill="#EDEDED"/>
<path fill-rule="evenodd" clip-rule="evenodd" d="M206.469 392.393C186.805 416.672 158.268 432.179 127.13 435.504C95.9936 438.828 64.8048 429.704 40.4194 410.134C16.8321 389.612 2.39107 360.602 0.271164 329.477C-1.84874 298.353 8.52602 267.661 29.1144 244.156L197.905 43.7758C217.569 19.5018 246.106 3.99798 277.239 0.67148C308.372 -2.65502 339.559 6.46816 363.945 26.0359C387.53 46.5562 401.972 75.5649 404.091 106.687C406.214 137.808 395.844 168.496 375.259 192.004L206.469 392.393ZM82.6253 360.023C93.7077 368.92 107.883 373.068 122.035 371.555C136.187 370.046 149.157 362.996 158.095 351.963L326.865 151.627C336.221 140.941 340.934 126.993 339.973 112.849C339.007 98.7031 332.447 85.5173 321.729 76.1885C310.642 67.2958 296.471 63.1491 282.318 64.6601C268.169 66.1712 255.199 73.2162 246.257 84.2475L77.4771 284.543C72.8376 289.834 69.2908 295.985 67.0387 302.644C64.7866 309.302 63.8732 316.334 64.3513 323.344C64.8297 330.354 66.6897 337.204 69.8249 343.497C72.9604 349.791 77.3102 355.403 82.6253 360.023Z" fill="#EDEDED"/>
<g filter="url(#filter0_f_126_110)">
<path d="M236.051 274.404L302.47 195.613L325.912 215.688L259.529 294.472L236.051 274.404Z" fill="#B6B6B6"/>
</g>
<g filter="url(#filter1_f_126_110)">
<path d="M117.349 166.933L182.033 94.8042L207.024 106.321L142.372 178.441L117.349 166.933Z" fill="#B6B6B6"/>
</g>
<path fill-rule="evenodd" clip-rule="evenodd" d="M371.667 391.552C381.192 403.805 393.107 414.011 406.691 421.568C420.27 429.121 435.247 433.87 450.713 435.521C466.18 437.173 481.824 435.695 496.708 431.178C511.587 426.66 525.402 419.196 537.317 409.235C549.236 399.274 559.01 387.017 566.06 373.197C573.105 359.382 577.28 344.29 578.335 328.828C579.39 313.361 577.298 297.846 572.188 283.207C567.079 268.569 559.059 255.105 548.604 243.631L380.208 43.682C360.589 19.4601 332.122 3.98967 301.065 0.670289C270.003 -2.64909 238.887 6.45451 214.562 25.9805C191.032 46.4562 176.625 75.4026 174.508 106.458C172.391 137.513 182.738 168.134 203.273 191.592L371.667 391.552ZM495.217 359.249C484.161 368.128 470.021 372.267 455.898 370.758C441.781 369.25 428.842 362.217 419.927 351.211L251.532 151.301C242.199 140.639 237.499 126.721 238.46 112.606C239.417 98.4914 245.964 85.3341 256.659 76.0253C267.715 67.1478 281.86 63.0086 295.982 64.5165C310.1 66.0244 323.043 73.0562 331.962 84.0665L500.353 283.933C504.982 289.212 508.52 295.349 510.768 301.994C513.015 308.635 513.928 315.653 513.451 322.65C512.975 329.642 511.124 336.474 507.995 342.754C504.87 349.034 500.517 354.642 495.217 359.249Z" fill="#EDEDED"/>
<g filter="url(#filter2_f_126_110)">
<path d="M392.617 75.5688L444.455 146.765L416.104 150.791L364.257 79.6146L392.617 75.5688Z" fill="#B6B6B6"/>
</g>
<path d="M335.192 138.804L380.314 185.806C442.38 99.458 371.902 2.81009 298.295 0.29541L279.312 65.2205C323.976 58.0788 352.439 101.868 335.192 138.804Z" fill="url(#paint0_linear_126_110)"/>
<defs>
<filter id="filter0_f_126_110" x="217.559" y="177.121" width="126.845" height="135.843" filterUnits="userSpaceOnUse" color-interpolation-filters="sRGB">
<feFlood flood-opacity="0" result="BackgroundImageFix"/>
<feBlend mode="normal" in="SourceGraphic" in2="BackgroundImageFix" result="shape"/>
<feGaussianBlur stdDeviation="9.24592" result="effect1_foregroundBlur_126_110"/>
</filter>
<filter id="filter1_f_126_110" x="98.8568" y="76.3124" width="126.658" height="120.62" filterUnits="userSpaceOnUse" color-interpolation-filters="sRGB">
<feFlood flood-opacity="0" result="BackgroundImageFix"/>
<feBlend mode="normal" in="SourceGraphic" in2="BackgroundImageFix" result="shape"/>
<feGaussianBlur stdDeviation="9.24592" result="effect1_foregroundBlur_126_110"/>
</filter>
<filter id="filter2_f_126_110" x="345.765" y="57.077" width="117.182" height="112.206" filterUnits="userSpaceOnUse" color-interpolation-filters="sRGB">
<feFlood flood-opacity="0" result="BackgroundImageFix"/>
<feBlend mode="normal" in="SourceGraphic" in2="BackgroundImageFix" result="shape"/>
<feGaussianBlur stdDeviation="9.24592" result="effect1_foregroundBlur_126_110"/>
</filter>
<linearGradient id="paint0_linear_126_110" x1="325.788" y1="34.2102" x2="365.315" y2="180.659" gradientUnits="userSpaceOnUse">
<stop stop-color="#EDEDED"/>
<stop offset="1" stop-color="#ECECEC"/>
</linearGradient>
</defs>
</svg>
