<svg width="2465" height="696" viewBox="0 0 2465 696" fill="none" xmlns="http://www.w3.org/2000/svg">
<path d="M1302.31 247.429C1304.09 247.429 1305.86 249.203 1305.86 250.976V398.768C1305.86 468.526 1262.07 503.404 1204.06 503.404C1146.06 503.404 1102.26 469.117 1102.26 398.768V250.976C1102.26 249.203 1104.04 247.429 1105.81 247.429H1140.73C1142.51 247.429 1144.29 249.203 1144.29 250.976V396.403C1144.29 445.47 1169.74 464.387 1204.66 464.387C1239.58 464.387 1265.03 444.879 1265.03 396.403V250.976C1265.03 249.203 1266.8 247.429 1268.58 247.429H1302.31ZM1904.24 372.757C1904.83 444.879 1846.83 503.404 1774.62 503.995C1702.41 504.587 1643.82 446.652 1643.23 374.53C1642.64 302.408 1700.64 243.882 1772.84 243.291H1773.44C1844.46 242.109 1902.46 298.269 1903.65 368.618C1904.24 370.392 1904.24 371.574 1904.24 372.757ZM1684.07 372.757C1685.25 421.823 1726.09 460.84 1775.21 460.249C1824.34 459.067 1863.4 418.276 1862.81 369.21C1861.62 320.734 1821.97 282.308 1774.03 281.717C1725.5 281.126 1685.25 319.551 1684.66 368.027C1684.07 369.801 1684.07 371.574 1684.07 372.757ZM2261.13 498.675H2225.62C2223.84 498.675 2222.07 496.901 2222.07 495.128C2222.07 494.537 2222.07 494.537 2222.07 493.946L2316.18 250.976C2316.77 249.203 2319.13 247.429 2320.91 247.429H2365.3C2367.67 247.429 2369.44 248.611 2370.04 250.976L2464.14 493.946C2464.73 495.719 2464.14 498.084 2462.37 498.675C2461.77 498.675 2461.77 498.675 2461.18 498.675H2425.67C2424.49 498.675 2422.71 497.493 2422.71 496.31L2346.95 296.496C2346.36 294.723 2344.58 293.54 2342.81 294.131C2341.63 294.722 2341.03 295.314 2340.44 296.496L2264.68 496.31C2264.09 497.493 2262.32 498.675 2261.13 498.675ZM836.517 498.675H801.005C799.23 498.675 797.454 496.901 797.454 495.128C797.454 494.537 797.454 494.537 797.454 493.946L891.56 250.976C892.152 249.203 894.52 247.429 896.295 247.429H940.685C943.052 247.429 944.828 248.611 945.42 250.976L1039.53 493.946C1040.12 495.719 1039.53 498.084 1037.75 498.675C1037.16 498.675 1037.16 498.675 1036.57 498.675H1001.06C999.871 498.675 998.096 497.493 998.096 496.31L922.337 296.496C921.745 294.723 919.378 293.54 917.602 294.722C916.419 295.314 915.827 295.905 915.827 296.496L840.068 496.31C839.476 497.493 838.293 498.675 836.517 498.675ZM2156.37 492.763L2085.94 402.906C2125.6 395.221 2149.27 368.618 2149.27 327.237C2149.27 279.943 2118.49 247.429 2064.04 247.429H1965.79C1962.83 247.429 1960.47 249.794 1960.47 252.75C1960.47 271.076 1975.26 285.855 1994.2 285.855H2059.9C2093.04 285.855 2108.43 302.999 2108.43 327.237C2108.43 351.474 2093.04 368.618 2059.9 368.618H1965.79C1962.83 368.618 1960.47 370.983 1960.47 373.939V493.946C1960.47 495.719 1962.24 497.493 1964.02 497.493H1997.75C1999.53 497.493 2001.3 495.719 2001.3 493.946V404.68H2039.78L2101.33 484.487C2107.84 493.355 2118.49 498.084 2129.15 498.084H2154.6C2156.37 498.084 2158.15 496.901 2158.74 495.128C2157.56 494.537 2156.96 493.946 2156.37 492.763ZM1586.41 492.763L1515.98 402.906C1555.63 395.221 1579.31 368.618 1579.31 327.237C1579.31 279.943 1548.53 247.429 1494.08 247.429H1395.83C1392.87 247.429 1390.5 249.794 1390.5 252.75C1390.5 271.076 1405.3 285.855 1424.24 285.855H1489.93C1523.08 285.855 1538.47 302.999 1538.47 327.237C1538.47 351.474 1523.08 368.618 1489.93 368.618H1395.83C1392.87 368.618 1390.5 370.983 1390.5 373.939V493.946C1390.5 495.719 1392.28 497.493 1394.05 497.493H1427.79C1429.56 497.493 1431.34 495.719 1431.34 493.946V404.68H1470.4L1531.36 484.487C1537.88 493.355 1548.53 498.084 1559.18 498.084H1584.63C1586.41 498.084 1588.18 496.31 1588.18 494.537C1587.59 494.537 1587 493.355 1586.41 492.763Z" fill="white"/>
<path d="M348.481 53.1345C377.867 53.1345 404.778 69.5073 417.77 95.7656L635.535 530.727C654.713 569.033 639.247 615.371 600.891 634.525C590.064 639.776 578.31 642.557 566.246 642.557H130.716C88.0292 642.557 53.3847 607.957 53.3847 565.326C53.3847 553.278 56.1687 541.539 61.4272 530.727L279.192 96.0746C292.184 69.8162 319.095 53.1345 348.481 53.1345ZM348.481 0C298.989 0 253.828 27.8029 231.556 71.9787L13.7911 506.94C-18.3788 571.505 7.60461 649.662 72.2536 682.099C90.5038 691.057 110.301 696 130.716 696H566.246C638.319 696 697.091 637.614 697.091 565.635C697.091 545.246 692.451 525.475 683.171 507.249L465.406 72.2876C443.135 28.1119 397.973 0 348.481 0Z" fill="#7ABA4C"/>
</svg>
