<svg width="2419" height="656" viewBox="0 0 2419 656" fill="none" xmlns="http://www.w3.org/2000/svg">
<path d="M674.848 79.0361H786.106C814.377 79.0361 835.048 86.6357 848.423 99.7071C861.495 110.955 867.27 126.154 867.27 141.049C867.27 146.825 867.27 154.12 865.446 159.896C861.799 169.32 856.023 178.743 848.423 186.343C844.775 189.991 840.824 192.119 837.176 193.942C850.247 197.59 861.799 205.19 871.222 214.614C878.822 224.037 882.47 235.284 882.47 252.308C882.47 261.731 880.646 272.979 876.694 280.578C873.046 288.178 865.446 295.778 857.847 301.249C848.423 307.025 839 310.673 829.576 314.321C818.329 317.968 804.953 317.968 791.882 317.968H676.672V78.4281H674.848V79.0361ZM776.683 176.919C786.106 176.919 795.53 175.095 804.953 171.144C812.553 167.496 816.201 159.896 816.201 152.297C816.201 144.697 812.553 137.097 806.777 133.449C799.178 127.674 789.754 125.85 780.331 127.674H727.437V178.439H776.379V176.919H776.683ZM789.754 273.283C799.178 273.283 808.601 271.459 818.025 267.507C825.624 263.859 829.272 256.259 827.448 246.836C827.448 239.236 823.8 231.637 818.025 227.989C812.249 224.341 801.002 220.389 787.93 220.389H725.613V273.283H789.754Z" fill="#F3BA2F"/>
<path d="M948.131 79.0361H1001.02V320.4H948.131V79.0361Z" fill="#F3BA2F"/>
<path d="M1082.19 79.0361H1131.13L1244.21 227.989V79.0361H1296.8V320.4H1251.81L1132.95 167.496V320.4H1082.19V79.0361Z" fill="#F3BA2F"/>
<path d="M1457.3 77.2123H1506.25L1609.9 320.4H1555.19L1532.69 265.683H1430.86L1408.36 320.4H1353.65L1457.3 77.2123ZM1513.85 220.389L1481.93 141.353L1450.01 220.389H1513.85Z" fill="#F3BA2F"/>
<path d="M1666.45 79.0361H1715.39L1828.47 227.989V79.0361H1881.36V320.4H1836.07L1719.04 167.496V320.4H1666.45V79.0361Z" fill="#F3BA2F"/>
<path d="M2073.48 324.048C2056.46 324.048 2039.44 320.4 2024.54 314.625C1994.45 301.553 1971.65 278.754 1958.58 248.66C1952.8 233.46 1949.15 216.741 1949.15 199.718C1949.15 167.8 1962.22 135.577 1985.02 111.258C1996.27 100.011 2009.65 90.5875 2024.54 84.8117C2041.56 77.2121 2058.59 75.3882 2075.31 75.3882C2084.73 75.3882 2095.98 75.3882 2105.4 77.2121C2114.83 79.036 2122.42 80.8599 2130.02 84.8117C2137.62 88.4596 2145.22 92.4114 2150.7 96.0592C2156.47 99.7071 2163.77 105.483 2169.54 111.258L2137.62 150.777C2128.2 143.177 2118.78 135.577 2109.35 130.106C2099.93 124.634 2088.68 122.506 2077.44 122.506C2068.01 122.506 2058.59 124.33 2049.16 128.282C2039.74 131.929 2032.14 137.705 2026.67 145.305C2021.2 152.904 2015.42 160.504 2011.47 169.928C2007.82 179.351 2005.69 188.775 2005.69 198.198C2005.69 207.622 2007.52 218.869 2011.47 228.293C2015.42 237.716 2019.07 245.316 2026.67 252.915C2039.74 268.115 2058.59 275.41 2077.44 275.41C2088.68 275.41 2102.06 273.587 2113.31 267.811C2122.73 262.035 2133.98 254.739 2141.58 247.14L2175.32 280.882C2169.54 286.658 2162.25 293.954 2156.47 299.729C2148.87 305.505 2141.27 309.153 2133.98 312.801C2126.38 316.448 2116.95 320.4 2107.53 322.224C2094.15 324.048 2082.91 324.048 2073.48 324.048Z" fill="#F3BA2F"/>
<path d="M2235.81 79.0361H2416.68V126.154H2286.58V175.095H2401.48V222.213H2286.58V273.283H2418.51V320.4H2235.81V79.0361Z" fill="#F3BA2F"/>
<path d="M742.637 557.813C729.566 557.813 716.19 555.989 704.943 550.213C693.695 546.565 682.448 538.965 670.896 529.542L689.744 508.871C697.343 516.471 704.943 520.118 714.366 525.894C723.79 529.542 733.213 531.67 742.637 531.67C750.237 531.67 757.836 529.846 765.132 525.894C770.908 522.246 772.732 516.471 772.732 510.695C772.732 508.871 772.731 504.919 770.908 503.095C769.084 501.271 767.26 497.32 765.132 495.496C761.484 493.672 757.532 491.848 753.884 489.72C748.109 487.896 740.813 486.072 735.037 483.944C727.438 482.12 718.014 480.296 710.415 476.345C704.639 474.521 697.343 470.569 693.391 466.921C689.744 463.273 685.792 459.321 682.144 453.85C678.496 446.25 678.496 438.65 678.496 433.179C678.496 425.579 680.32 420.107 682.144 412.508C683.968 406.732 689.744 401.26 693.391 397.308C699.167 393.661 704.639 389.709 712.238 387.885C719.838 386.061 727.438 384.237 734.733 384.237C745.981 384.237 757.228 386.061 768.78 390.013C778.203 393.661 787.627 399.436 797.05 405.212L781.851 427.707C774.251 421.931 766.652 418.283 759.356 414.636C751.757 410.988 744.157 410.988 736.861 410.988C729.262 410.988 721.662 412.812 716.19 416.764C712.542 420.411 708.591 426.187 708.591 431.963C708.591 435.611 708.591 437.738 710.415 441.386C712.238 443.21 714.062 447.162 716.19 448.986C719.838 450.81 723.79 452.634 729.262 454.762C735.037 456.586 740.509 458.409 749.933 460.537C757.532 462.361 765.132 464.185 774.555 468.137C780.331 469.961 785.803 473.913 791.579 477.561C795.226 481.208 799.178 486.984 801.002 490.632C802.826 496.408 804.65 501.879 804.65 509.479C804.65 517.079 802.826 524.678 801.002 530.15C797.354 535.926 793.402 541.397 787.931 547.173C782.155 550.821 776.683 554.773 769.084 556.597C759.66 555.989 750.237 557.813 742.637 557.813Z" fill="#F3BA2F"/>
<path d="M836.871 386.365H869.093L919.859 465.401L972.752 386.365H1004.67V555.989H974.576V433.483L921.683 512.519H919.859L867.27 433.483V555.989H836.871V386.365Z" fill="#F3BA2F"/>
<path d="M1106.51 384.541H1134.78L1208.34 554.165H1176.42L1159.4 512.823H1080.36L1063.34 554.165H1033.25L1106.51 384.541ZM1149.98 488.2L1119.88 420.411L1091.61 488.2H1149.98Z" fill="#F3BA2F"/>
<path d="M1238.44 386.365H1313.82C1323.25 386.365 1332.67 388.189 1342.09 390.013C1349.69 391.837 1357.29 397.613 1362.77 403.084C1366.41 406.732 1370.36 412.508 1374.01 420.108C1375.84 425.883 1377.66 433.179 1377.66 440.779C1377.66 446.554 1375.84 453.85 1374.01 459.626C1372.19 465.401 1368.24 469.049 1366.41 474.825C1362.77 478.473 1358.81 482.425 1353.34 486.072C1347.57 489.72 1342.09 491.848 1336.32 493.672L1381.61 557.813H1345.74L1304.4 499.448H1266.71V557.813H1236.61L1238.44 386.365ZM1312 469.353C1321.42 469.353 1330.85 467.529 1336.62 461.754C1342.4 455.978 1346.05 448.682 1346.05 441.083C1346.05 433.483 1342.4 425.883 1336.62 420.412C1329.02 414.636 1319.6 412.812 1310.18 412.812H1266.71V469.353H1312Z" fill="#F3BA2F"/>
<path d="M1455.18 412.812H1400.46V386.365H1538.17V412.812H1483.45V555.989H1453.35L1455.18 412.812Z" fill="#F3BA2F"/>
<path d="M1721.16 557.813C1709.92 557.813 1698.67 555.989 1687.12 550.213C1666.45 540.79 1649.42 525.59 1641.82 504.919C1638.18 493.672 1634.22 482.424 1636.05 470.873C1636.05 459.625 1637.87 448.378 1641.82 436.827C1649.42 416.156 1666.45 399.132 1687.12 389.709C1698.36 386.061 1709.61 382.109 1722.99 382.109C1730.59 382.109 1738.19 382.109 1743.66 383.933C1749.43 385.757 1754.91 387.581 1760.68 389.709C1766.46 391.533 1770.1 395.485 1775.88 397.309C1779.53 400.956 1785.3 404.908 1788.95 408.556L1770.1 431.051C1764.33 425.275 1757.03 419.803 1749.43 415.852C1741.83 412.204 1732.41 410.076 1722.99 410.076C1715.39 410.076 1707.79 411.9 1700.49 413.724C1692.89 417.372 1687.42 421.323 1681.65 426.795C1675.87 432.571 1672.22 438.043 1670.4 445.642C1668.57 453.242 1666.75 460.841 1666.75 468.137C1666.75 475.737 1668.57 483.336 1670.4 490.632C1672.22 497.928 1676.17 503.703 1681.65 509.479C1687.42 515.255 1692.89 518.903 1700.49 522.55C1708.09 526.198 1715.69 528.326 1722.99 526.198C1732.41 526.198 1741.83 524.374 1749.43 520.422C1757.03 516.775 1764.63 510.999 1771.93 503.399L1790.78 522.246C1787.13 525.894 1781.35 531.67 1777.7 535.318C1771.93 538.966 1768.28 542.917 1762.51 544.741C1756.73 546.565 1751.26 550.517 1743.66 550.517C1736.06 557.813 1728.46 557.813 1721.16 557.813Z" fill="#F3BA2F"/>
<path d="M1820.87 386.365H1849.14V455.978H1930.31V386.365H1960.4V555.989H1930.31V484.248H1849.14V555.989H1820.87V386.365Z" fill="#F3BA2F"/>
<path d="M2064.06 384.541H2092.33L2165.9 554.165H2133.98L2116.95 512.823H2037.92L2020.89 554.165H1990.8L2064.06 384.541ZM2105.71 488.2L2077.44 420.411L2049.16 488.2H2105.71Z" fill="#F3BA2F"/>
<path d="M2195.99 386.365H2226.39V555.989H2195.99V386.365Z" fill="#F3BA2F"/>
<path d="M2271.38 386.365H2297.82L2388.41 503.096V386.365H2418.51V555.989H2393.88L2301.78 435.307V555.989H2271.38V386.365Z" fill="#F3BA2F"/>
<path d="M343.199 544.741V618.306L279.058 656L216.741 618.306V544.741L279.058 582.436L343.199 544.741ZM0 290.306L62.317 328V454.154L169.624 518.295V591.859L0 491.848V290.306ZM558.117 290.306V492.152L386.669 592.163V518.599L493.976 454.458V328.304L558.117 290.306ZM386.365 190.295L450.506 227.989V301.553L343.199 365.694V493.672L280.882 531.366L218.869 493.672V365.39L107.611 301.249V227.685L171.752 189.991L279.058 254.132L386.365 190.295ZM107.611 354.143L169.928 391.837V465.401L107.611 427.707V354.143ZM450.506 354.143V427.707L388.189 465.401V391.837L450.506 354.143ZM62.317 126.154L126.458 163.848L62.317 201.542V275.107L0 237.412V163.848L62.317 126.154ZM495.8 126.154L559.941 163.848V237.412L495.8 275.107V201.542L433.483 163.848L495.8 126.154ZM279.058 126.154L343.199 163.848L279.058 201.542L216.741 163.848L279.058 126.154ZM279.058 0L450.506 100.011L388.189 137.705L280.882 73.5643L171.448 137.705L109.131 100.011L279.058 0Z" fill="#F3BA2F"/>
</svg>
