<svg width="2273" height="762" viewBox="0 0 2273 762" fill="none" xmlns="http://www.w3.org/2000/svg">
<path d="M566.548 281.1C566.548 265.795 569.503 252.27 575.413 240.47C580.898 229.167 589.51 219.675 600.226 213.118C610.853 206.678 623.146 203.458 637.068 203.458C650.479 203.458 662.45 206.773 672.981 213.402C683.513 220.032 691.733 229.313 697.662 241.284C703.591 253.255 706.546 266.912 706.546 282.198V293.79H603.882C604.413 303.015 607.727 310.459 613.808 316.18C619.907 321.9 627.919 324.741 637.863 324.741C644.61 324.804 651.261 323.141 657.184 319.911C663.094 316.691 669.534 311.141 676.504 303.186L699.746 328.359C691.752 337.735 682.509 345.065 672.072 350.331C661.444 355.618 649.714 358.312 637.845 358.192C623.733 358.192 611.288 354.972 600.492 348.532C589.685 342.072 580.976 332.626 575.413 321.332C569.503 309.607 566.529 296.215 566.529 281.119V281.081L566.548 281.1ZM668.928 265.056C668.66 261.202 667.635 257.439 665.913 253.981C664.19 250.523 661.803 247.438 658.889 244.902C652.895 239.56 645.094 236.696 637.068 236.89C628.165 236.89 620.873 239.485 615.115 244.637C609.375 249.789 605.814 256.608 604.413 265.094H668.928V265.056ZM820.177 242.97V301.822C820.177 306.784 821.256 310.383 823.435 312.581C825.613 314.797 829.231 315.895 834.269 315.895H865.883V354.044H830.879C815.555 354.044 803.716 350.218 795.363 342.565C786.991 334.932 782.824 324.002 782.824 309.834V242.97H748.861V207.587H782.824V170.272H820.177V207.587H874.501V242.97H820.177ZM922.045 152.334H959.398V221.13H959.928C969.664 209.349 982.999 203.458 999.895 203.458C1009.43 203.3 1018.79 205.991 1026.79 211.186C1034.63 216.357 1040.71 223.631 1045.07 233.026C1049.43 242.402 1051.61 253.293 1051.61 265.624V354.044H1014.25V270.89C1014.25 261.116 1011.9 253.464 1007.21 247.952C1002.49 242.421 996.05 239.655 987.886 239.655C978.983 239.655 972.013 242.383 966.974 247.8C961.917 253.236 959.398 260.756 959.398 270.341V354.063H922.045V152.315V152.334ZM1090 281.1C1090 265.795 1092.96 252.27 1098.88 240.47C1104.37 229.167 1112.98 219.675 1123.7 213.118C1134.3 206.678 1146.58 203.458 1160.52 203.458C1173.93 203.458 1185.9 206.773 1196.43 213.402C1206.98 220.032 1215.2 229.313 1221.13 241.284C1227.02 253.255 1230.02 266.912 1230.02 282.198V293.79H1127.35C1127.88 303.015 1131.18 310.459 1137.28 316.18C1143.38 321.9 1151.39 324.741 1161.32 324.741C1168.27 324.741 1174.73 323.15 1180.64 319.911C1186.56 316.691 1193 311.141 1199.96 303.186L1223.22 328.359C1215.56 337.466 1206.15 344.939 1195.54 350.331C1184.92 355.613 1173.2 358.306 1161.33 358.192C1147.22 358.192 1134.76 354.972 1123.98 348.532C1113.17 342.073 1104.47 332.627 1098.9 321.332C1092.97 309.607 1090 296.196 1090 281.1ZM1192.4 265.056C1192.13 261.202 1191.11 257.438 1189.39 253.98C1187.66 250.522 1185.28 247.437 1182.36 244.902C1176.37 239.56 1168.57 236.696 1160.54 236.89C1151.66 236.89 1144.34 239.485 1138.59 244.637C1132.85 249.789 1129.27 256.608 1127.88 265.094H1192.4V265.056ZM1281.22 207.587H1317V221.13H1317.51C1323.44 214.88 1329.57 210.353 1335.94 207.587C1342.3 204.822 1349.56 203.42 1357.76 203.42C1369.77 203.42 1380.13 207.17 1388.82 214.633C1397.54 222.077 1403.64 232.249 1407.12 245.148L1372.12 257.309C1368.14 245.338 1359.84 239.333 1347.3 239.333C1337.91 239.333 1330.77 242.231 1325.9 248.046C1321.01 253.843 1318.57 261.817 1318.57 271.951V354.025H1281.22V207.606V207.587ZM1438.98 281.1C1438.98 265.795 1441.94 252.27 1447.85 240.47C1453.33 229.17 1461.95 219.678 1472.66 213.118C1483.27 206.678 1495.56 203.458 1509.48 203.458C1522.89 203.458 1534.86 206.773 1545.41 213.402C1555.95 220.032 1564.17 229.313 1570.09 241.284C1576 253.255 1578.96 266.912 1578.96 282.198V293.79H1476.33C1476.85 303.015 1480.16 310.459 1486.26 316.18C1492.36 321.9 1500.35 324.741 1510.3 324.741C1517.23 324.741 1523.69 323.15 1529.62 319.911C1535.53 316.691 1541.99 311.141 1548.94 303.186L1572.2 328.359C1564.19 337.735 1554.96 345.065 1544.5 350.331C1533.88 355.616 1522.16 358.31 1510.3 358.192C1496.18 358.192 1483.74 354.972 1472.94 348.532C1462.14 342.067 1453.43 332.622 1447.86 321.332C1441.95 309.607 1438.98 296.196 1438.98 281.1ZM1541.38 265.056C1541.11 261.2 1540.08 257.436 1538.36 253.978C1536.63 250.519 1534.24 247.435 1531.32 244.902C1525.33 239.559 1517.53 236.694 1509.5 236.89C1500.64 236.89 1493.32 239.485 1487.57 244.637C1481.81 249.789 1478.25 256.608 1476.85 265.094H1541.36L1541.38 265.056ZM1621.29 304.303V207.587H1658.61V295.173C1658.61 313.054 1666.98 321.976 1683.71 321.976C1691.21 321.976 1697.16 319.551 1701.61 314.645C1706.04 309.777 1708.27 303.28 1708.27 295.173V207.587H1745.59V354.006H1709.83V341.012H1709.3C1705.47 346.183 1700.2 350.312 1693.5 353.457C1686.93 356.567 1679.74 358.172 1672.47 358.154C1656.09 358.154 1643.47 353.419 1634.59 343.948C1625.73 334.439 1621.28 321.218 1621.28 304.284L1621.29 304.303ZM1784.02 207.587H1816.94V220.297H1817.47C1820.41 215.334 1824.22 211.508 1828.82 208.837C1833.42 206.185 1838.52 204.822 1844.1 204.822C1855.09 204.822 1863.86 210.258 1870.47 221.111H1871C1877.95 210.258 1887.54 204.822 1899.74 204.822C1909.81 204.822 1918.01 208.61 1924.27 216.149C1930.55 223.706 1933.68 233.556 1933.68 245.698V354.044H1899.19V252.63C1899.19 248.406 1898.14 245.186 1896.06 242.97C1893.96 240.754 1891 239.655 1887.18 239.655C1885.53 239.585 1883.89 239.881 1882.37 240.523C1880.86 241.165 1879.5 242.137 1878.41 243.368C1876.25 245.868 1875.15 249.24 1875.15 253.464V354.044H1842.49V252.63C1842.49 248.577 1841.49 245.395 1839.5 243.103C1837.49 240.83 1834.67 239.636 1831 239.636C1829.3 239.559 1827.6 239.853 1826.02 240.497C1824.44 241.142 1823.03 242.121 1821.87 243.368C1819.59 245.868 1818.46 249.24 1818.46 253.464V354.044H1783.98V207.587H1784.02ZM608.333 550.904H571.776V515.54H608.333V494.004C608.333 481.104 612.387 470.933 620.475 463.47C628.582 456.026 639.758 452.275 654.04 452.275H694.272V487.355H658.472C654.835 487.355 652.032 488.359 650.138 490.386C648.206 492.431 647.259 495.273 647.259 498.966V515.54H702.625V550.904H647.259V645.688H608.333V550.904ZM741.02 572.46C741.02 557.363 743.993 543.953 749.922 532.266C755.474 520.972 764.118 511.487 774.849 504.914C785.57 498.379 797.788 495.102 811.558 495.102C825.48 495.102 837.811 498.379 848.513 504.914C859.249 511.488 867.899 520.972 873.459 532.266C879.388 543.953 882.343 557.363 882.343 572.46C882.343 587.575 879.369 600.948 873.459 612.673C867.902 623.963 859.251 633.442 848.513 640.006C837.811 646.541 825.48 649.817 811.558 649.817C797.788 649.817 785.57 646.541 774.849 640.006C764.115 633.439 755.464 623.961 749.903 612.673C743.993 600.948 741.02 587.556 741.02 572.46ZM844.99 572.46C844.99 559.579 842.073 549.484 836.239 542.191C830.405 534.917 822.185 531.281 811.558 531.281C801.102 531.281 792.958 534.917 787.124 542.191C781.29 549.484 778.372 559.579 778.372 572.46C778.372 585.359 781.29 595.436 787.124 602.729C792.958 610.002 801.102 613.639 811.558 613.639C821.995 613.639 830.178 609.945 836.107 602.577C842.035 595.228 844.99 585.17 844.99 572.46ZM923.333 595.928V499.25H960.686V586.837C960.686 604.698 969.039 613.639 985.764 613.639C993.246 613.639 999.213 611.195 1003.66 606.309C1008.1 601.441 1010.31 594.944 1010.31 586.818V499.231H1047.67V645.669H1011.88V632.694H1011.35C1007.21 638.091 1001.78 642.363 995.557 645.12C988.985 648.229 981.803 649.834 974.532 649.817C958.167 649.817 945.551 645.082 936.649 635.592C927.784 626.103 923.333 612.862 923.333 595.928ZM1096.52 499.231H1133.89V513.059H1134.4C1139.99 507.149 1145.99 502.679 1152.41 499.648C1158.85 496.617 1166.16 495.102 1174.39 495.102C1183.42 495.102 1191.85 497.318 1199.69 501.845C1207.53 506.372 1213.9 513.267 1218.77 522.586C1223.63 531.868 1226.08 543.422 1226.08 557.25V645.669H1188.72V562.515C1188.72 553.12 1186.45 545.563 1181.92 539.842C1177.4 534.141 1170.88 531.262 1162.34 531.262C1153.45 531.262 1146.48 533.989 1141.45 539.407C1136.39 544.843 1133.87 552.363 1133.87 561.947V645.669H1096.54V499.213L1096.52 499.231ZM1261.61 572.46C1261.61 557.723 1264.32 544.464 1269.72 532.682C1275.12 520.882 1282.67 511.676 1292.45 505.028C1302.22 498.399 1313.79 494.934 1325.6 495.102C1341.28 495.102 1353.55 499.516 1362.44 508.361H1362.95V443.979H1400.28V645.688H1365.81V632.978H1365.3C1355.03 644.211 1341.62 649.836 1325.08 649.836C1312.89 649.836 1301.98 646.616 1292.32 640.176C1282.66 633.717 1275.08 624.644 1269.7 612.957C1264.3 601.27 1261.59 587.765 1261.59 572.479H1261.61V572.46ZM1362.95 581.836V562.8C1362.95 557.269 1361.55 552.116 1358.78 547.305C1355.98 542.494 1351.97 538.493 1347.15 535.694C1342.13 532.739 1336.39 531.213 1330.56 531.281C1320.79 531.281 1313.09 535.012 1307.45 542.456C1301.77 549.938 1298.95 559.92 1298.95 572.46C1298.95 584.791 1301.81 594.735 1307.56 602.274C1313.32 609.832 1320.9 613.601 1330.29 613.601C1339.67 613.601 1347.49 610.514 1353.67 604.358C1359.84 598.183 1362.95 590.682 1362.95 581.836ZM1447.58 606.46C1447.58 592.822 1451.97 582.215 1460.76 574.676C1469.55 567.137 1484.25 561.606 1504.78 558.102C1515.58 556.265 1522.95 554.181 1526.85 551.889C1530.79 549.597 1532.72 546.491 1532.72 542.608C1532.76 540.514 1532.24 538.448 1531.24 536.612C1530.23 534.776 1528.77 533.232 1526.98 532.133C1523.18 529.538 1517.93 528.25 1511.32 528.25C1503.84 528.25 1497.34 530.637 1491.85 535.448C1486.35 540.24 1482.85 546.586 1481.28 554.503L1446.52 546.226C1448.26 536.262 1452.18 527.417 1458.28 519.669C1464.41 511.911 1472.29 505.712 1481.28 501.58C1490.68 497.211 1500.93 494.991 1511.3 495.083C1529.07 495.083 1543.25 500.33 1553.9 510.805C1564.51 521.336 1569.81 535.334 1569.81 552.817V645.65H1536.4V629.36H1535.87C1531.87 635.801 1526.25 640.801 1519.01 644.4C1511.81 647.999 1503.67 649.78 1494.59 649.78C1485.54 649.78 1477.43 647.961 1470.31 644.286C1463.38 640.807 1457.58 635.435 1453.58 628.792C1449.55 622.036 1447.47 614.291 1447.58 606.422V606.46ZM1534.3 591.25V574.676H1533.8C1531.97 577.67 1529.22 579.994 1525.96 581.306C1522.31 582.972 1516.55 584.639 1508.72 586.287C1498.97 588.503 1492.24 590.833 1488.61 593.333C1486.87 594.437 1485.46 595.973 1484.49 597.789C1483.53 599.605 1483.06 601.64 1483.11 603.695C1483.02 605.588 1483.41 607.474 1484.26 609.17C1485.1 610.866 1486.37 612.314 1487.95 613.374C1491.17 615.59 1495.82 616.689 1501.92 616.689C1507.49 616.689 1512.82 615.552 1517.85 613.222C1522.91 610.892 1526.91 607.786 1529.88 603.846C1532.84 599.906 1534.31 595.701 1534.31 591.269L1534.3 591.25ZM1692.59 534.614V593.466C1692.59 598.429 1693.67 602.028 1695.87 604.225C1698.03 606.46 1701.63 607.559 1706.7 607.559H1738.32V645.669H1703.31C1687.97 645.669 1676.13 641.843 1667.8 634.21C1659.44 626.557 1655.26 615.647 1655.26 601.459V534.595H1621.29V499.25H1655.26V461.935H1692.61V499.25H1746.93V534.633H1692.63L1692.59 534.614ZM1926.63 609.491V645.669H1790.56V609.491H1839.92V535.429H1793.13V499.25H1877.27V609.491H1926.63ZM1839.12 437.349H1877.54V476.293H1839.12V437.349ZM1962.43 572.46C1962.43 557.363 1965.39 543.953 1971.3 532.266C1976.85 520.965 1985.5 511.477 1996.24 504.914C2006.95 498.379 2019.2 495.102 2032.93 495.102C2046.87 495.102 2059.21 498.379 2069.91 504.914C2080.64 511.486 2089.29 520.971 2094.85 532.266C2100.76 543.953 2103.72 557.363 2103.72 572.46C2103.72 587.575 2100.76 600.948 2094.85 612.673C2089.3 623.968 2080.65 633.449 2069.91 640.006C2059.21 646.541 2046.87 649.817 2032.93 649.817C2019.2 649.817 2006.95 646.541 1996.24 640.006C1985.51 633.439 1976.86 623.961 1971.3 612.673C1965.39 600.948 1962.43 587.556 1962.43 572.46ZM2066.38 572.46C2066.38 559.579 2063.47 549.484 2057.61 542.191C2051.78 534.917 2043.56 531.281 2032.93 531.281C2022.5 531.281 2014.35 534.917 2008.52 542.191C2002.68 549.484 1999.77 559.579 1999.77 572.46C1999.77 585.359 2002.67 595.436 2008.52 602.729C2014.35 610.002 2022.5 613.639 2032.93 613.639C2043.39 613.639 2051.57 609.945 2057.48 602.577C2063.41 595.209 2066.38 585.17 2066.38 572.46ZM2143.46 499.231H2180.79V513.059H2181.32C2186.43 507.499 2192.54 502.95 2199.34 499.648C2206.22 496.518 2213.71 494.965 2221.27 495.102C2230.34 495.102 2238.77 497.318 2246.61 501.845C2254.46 506.372 2260.82 513.267 2265.69 522.586C2270.56 531.868 2273 543.422 2273 557.25V645.669H2235.65V562.515C2235.65 553.12 2233.37 545.563 2228.85 539.842C2224.32 534.141 2217.79 531.262 2209.24 531.262C2200.38 531.262 2193.41 533.989 2188.37 539.407C2183.31 544.843 2180.79 552.363 2180.79 561.947V645.669H2143.46V499.231Z" fill="white"/>
<path d="M211.313 577.141V761.291L0 434.775L211.313 577.141Z" fill="#18ABD3"/>
<path d="M422.65 434.775L211.318 761.291V577.141L422.65 434.775Z" fill="#6B7ABA"/>
<path d="M422.65 388.77L211.318 261.766V531.154L422.65 388.77Z" fill="#A566A6"/>
<path d="M422.65 388.766L211.318 0.708496V261.743L422.65 388.766Z" fill="#F08A78"/>
<path d="M211.313 0.708496V261.743L0 388.785L211.313 0.708496Z" fill="#FFEB5C"/>
<path d="M211.313 261.748V531.155L0 388.771L211.313 261.748Z" fill="#58B36F"/>
</svg>
