<svg width="2273" height="579" viewBox="0 0 2273 579" fill="none" xmlns="http://www.w3.org/2000/svg">
<path d="M174.684 0L0 294.85L174.684 214.183V0Z" fill="#C5D1FF"/>
<path d="M174.684 214.182L0 294.849L174.684 399.907V214.182Z" fill="#909DFE"/>
<path d="M349.579 294.85L174.685 0V214.183L349.579 294.85Z" fill="#909DFE"/>
<path d="M174.685 399.907L349.579 294.849L174.685 214.182V399.907Z" fill="#B5BBFF"/>
<path d="M0 328.656L174.684 579V433.501L0 328.656Z" fill="#C5D1FF"/>
<path d="M174.685 433.501V579L349.579 328.656L174.685 433.501Z" fill="#909DFE"/>
<path d="M641.703 334.648C641.703 338.714 638.125 342.351 634.126 342.351H494.378C497.956 376.158 523.843 409.11 560.464 409.11C585.509 409.11 604.03 399.267 618.131 378.726C619.604 376.586 621.708 375.088 624.234 375.088C628.233 375.088 631.179 378.084 631.179 382.149C631.179 383.647 630.758 384.717 630.127 385.787C616.026 410.821 588.034 423.018 560.464 423.018C513.32 423.018 479.856 380.224 479.856 334.434C479.856 288.645 513.32 246.065 560.464 246.065C607.607 246.065 641.703 288.859 641.703 334.648ZM626.549 327.801C623.603 291.64 597.084 260.615 560.464 260.615C523.843 260.615 497.746 291.64 494.378 327.801H626.549Z" fill="#C5D1FF"/>
<path d="M811.545 248.418C815.544 248.418 818.491 252.056 818.491 255.693C818.491 259.759 815.544 262.968 811.545 262.968H774.083V413.175C774.083 416.812 770.926 420.236 766.927 420.236C762.928 420.236 759.771 416.598 759.771 413.175V262.968H723.782C719.783 262.968 716.837 259.759 716.837 255.693C716.837 252.056 719.783 248.418 723.782 248.418H759.771V194.07C759.771 190.005 762.928 187.009 766.927 187.009C770.926 187.009 774.083 190.005 774.083 194.07V248.418H811.545Z" fill="#C5D1FF"/>
<path d="M1039.27 321.382V412.105C1039.27 416.17 1036.95 419.166 1033.37 419.166C1029.37 419.166 1027.48 416.17 1027.48 412.105V321.382C1027.48 290.784 1010.01 260.187 976.338 260.187C933.193 260.187 914.041 298.487 916.356 337.644C916.356 338.714 916.145 343.207 916.145 343.849V412.105C916.145 416.17 914.251 419.166 910.252 419.166C906.254 419.166 904.359 416.17 904.359 412.105V114.046C904.359 110.408 906.254 106.985 910.252 106.985C914.251 106.985 916.145 110.622 916.145 114.046V282.654C930.457 260.829 949.609 246.065 974.654 246.065C1015.69 246.065 1039.27 282.654 1039.27 321.382Z" fill="#C5D1FF"/>
<path d="M1291.4 334.648C1291.4 338.714 1287.82 342.351 1283.83 342.351H1144.08C1147.66 376.158 1173.54 409.11 1210.16 409.11C1235.21 409.11 1253.73 399.267 1267.83 378.726C1269.3 376.586 1271.41 375.088 1273.93 375.088C1277.93 375.088 1280.88 378.084 1280.88 382.149C1280.88 383.647 1280.46 384.717 1279.83 385.787C1265.73 410.821 1237.73 423.018 1210.16 423.018C1163.02 423.018 1129.56 380.224 1129.56 334.434C1129.56 288.645 1163.02 246.065 1210.16 246.065C1257.31 246.065 1291.4 288.859 1291.4 334.648ZM1276.46 327.801C1273.51 291.64 1246.99 260.615 1210.37 260.615C1173.75 260.615 1147.66 291.64 1144.29 327.801H1276.46Z" fill="#C5D1FF"/>
<path d="M1463.35 255.693C1463.35 260.187 1460.83 262.754 1456.62 263.396C1415.58 269.601 1396.84 303.622 1396.84 343.421V411.463C1396.84 415.528 1393.69 418.524 1389.69 418.524C1385.69 418.524 1382.53 415.528 1382.53 411.463V256.121C1382.53 252.056 1385.69 249.06 1389.69 249.06C1393.69 249.06 1396.84 252.056 1396.84 256.121V287.789C1408.63 267.889 1431.57 249.06 1455.56 249.06C1459.14 249.06 1463.35 251.628 1463.35 255.693Z" fill="#C5D1FF"/>
<path d="M1693.17 334.647C1693.17 338.713 1689.6 342.35 1685.6 342.35H1545.85C1549.43 376.158 1575.31 409.109 1611.94 409.109C1636.98 409.109 1655.5 399.266 1669.6 378.725C1671.08 376.586 1673.18 375.088 1675.71 375.088C1679.7 375.088 1682.65 378.083 1682.65 382.149C1682.65 383.646 1682.23 384.716 1681.6 385.786C1667.5 410.821 1639.51 423.017 1611.94 423.017C1564.79 423.017 1531.33 380.223 1531.33 334.434C1531.33 288.644 1564.79 246.064 1611.94 246.064C1659.08 245.85 1693.17 288.858 1693.17 334.647ZM1678.23 327.801C1675.28 291.64 1648.77 260.614 1612.15 260.614C1575.53 260.614 1549.43 291.64 1546.06 327.801H1678.23Z" fill="#C5D1FF"/>
<path d="M1920.27 257.191V306.618V412.96C1920.27 417.026 1916.69 420.021 1913.11 420.021C1909.11 420.021 1905.95 417.026 1905.95 412.96V383.647C1894.17 406.969 1873.75 423.873 1847.66 423.873C1805.98 423.873 1782.83 387.284 1782.83 348.556V257.405C1782.83 253.767 1785.99 250.344 1789.99 250.344C1793.99 250.344 1797.14 253.981 1797.14 257.405V348.556C1797.14 379.153 1814.19 409.751 1847.87 409.751C1895.01 409.751 1906.16 365.031 1906.16 315.604V257.619C1906.16 253.981 1909.32 250.558 1913.32 250.558C1916.69 250.13 1920.27 253.767 1920.27 257.191Z" fill="#C5D1FF"/>
<path d="M2273 320.954V412.105C2273 416.17 2269.42 419.166 2265.85 419.166C2261.85 419.166 2258.69 416.17 2258.69 412.105V320.954C2258.69 290.357 2241.64 260.401 2207.97 260.401C2165.88 260.401 2149.67 306.19 2149.67 341.923V412.105C2149.67 416.17 2146.09 419.166 2142.51 419.166C2138.52 419.166 2135.36 416.17 2135.36 412.105V320.954C2135.36 290.357 2118.73 260.401 2085.27 260.401C2042.75 260.401 2025.08 294.422 2026.55 339.783V343.421V412.105C2026.55 416.17 2023.39 419.166 2019.39 419.166C2015.39 419.166 2012.24 416.17 2012.24 412.105V256.335C2012.24 252.27 2015.39 249.274 2019.39 249.274C2023.39 249.274 2026.55 252.27 2026.55 256.335V282.226C2038.33 260.401 2060.43 246.065 2085.48 246.065C2114.1 246.065 2136.2 264.466 2145.25 291.426C2156.83 264.894 2179.35 246.065 2208.39 246.065C2249.64 246.065 2273 282.226 2273 320.954Z" fill="#C5D1FF"/>
</svg>
