<svg width="2482" height="537" viewBox="0 0 2482 537" fill="none" xmlns="http://www.w3.org/2000/svg">
<path d="M790.092 501.926V163.738H840.42L845.213 191.034H847.61C861.989 172.338 886.424 158.945 920.448 158.945C982.716 158.945 1032.57 209.732 1032.57 284.911C1032.57 360.087 982.76 410.874 920.448 410.874C886.896 410.874 863.443 396.968 850.99 381.18H848.593V501.882H790.135L790.092 501.926ZM974.072 284.952C974.072 240.883 945.784 213.114 911.288 213.114C876.795 213.114 848.508 240.883 848.508 284.952C848.508 329.024 876.795 356.793 911.288 356.793C945.784 356.793 974.072 329.024 974.072 284.952Z" fill="white"/>
<path d="M1062.25 284.957C1062.25 211.663 1114.93 158.993 1185.37 158.993C1255.81 158.993 1308.5 211.663 1308.5 284.957C1308.5 358.251 1255.81 410.922 1185.37 410.922C1114.93 410.922 1062.25 357.739 1062.25 284.957ZM1249.57 284.957C1249.57 241.828 1220.81 213.119 1185.37 213.119C1149.94 213.119 1120.71 241.872 1120.71 284.957C1120.71 328.044 1149.94 356.326 1185.37 356.326C1220.81 356.326 1249.57 328.086 1249.57 284.957Z" fill="white"/>
<path d="M1350.83 406.126V70.8479H1409.29V406.167H1350.83V406.126Z" fill="white"/>
<path d="M1626.32 163.735H1688.59L1583.18 458.323C1572.65 487.545 1558.27 501.921 1520.4 501.921H1463.87V447.796H1511.8C1520.44 447.796 1525.19 443.476 1528.1 436.287L1533.84 420.499L1435.15 163.735H1497.42L1560.2 331.888H1569.79L1626.32 163.735Z" fill="white"/>
<path d="M1699.77 418.104H1759.17C1761.57 433.895 1777.36 455.459 1814.76 455.459C1849.72 455.459 1872.75 433.423 1872.75 399.878V365.864H1870.35C1857.43 379.767 1833.46 392.22 1802.78 392.22C1740.51 392.22 1692.58 344.297 1692.58 275.325C1692.58 206.353 1740.51 158.945 1802.78 158.945C1834.87 158.945 1858.37 171.867 1873.22 190.093H1875.61L1880.41 163.738H1931.21V399.878C1931.21 464.058 1888.07 506.717 1814.76 506.717C1732.85 506.717 1701.22 453.062 1699.77 418.104ZM1872.75 275.369C1872.75 237.545 1845.91 211.188 1811.89 211.188C1777.87 211.188 1751.51 237.545 1751.51 275.369C1751.51 313.193 1778.34 340.02 1811.89 340.02C1845.45 340.02 1872.75 313.662 1872.75 275.369Z" fill="white"/>
<path d="M1971.83 284.957C1971.83 211.663 2024.52 158.993 2094.96 158.993C2165.4 158.993 2218.08 211.663 2218.08 284.957C2218.08 358.251 2165.4 410.922 2094.96 410.922C2024.52 410.922 1971.83 357.739 1971.83 284.957ZM2159.15 284.957C2159.15 241.828 2130.39 213.119 2094.96 213.119C2059.52 213.119 2030.29 241.872 2030.29 284.957C2030.29 328.044 2059.52 356.326 2094.96 356.326C2130.39 356.326 2159.15 328.086 2159.15 284.957Z" fill="white"/>
<path d="M2258.78 406.126V163.738H2309.06L2313.86 186.714H2316.25C2325.84 175.718 2349.8 158.945 2386.19 158.945C2441.77 158.945 2482 199.164 2482 260.478V406.082H2423.55V268.139C2423.55 236.988 2401.51 214.483 2371.34 214.483C2341.17 214.483 2317.19 237.973 2317.19 268.139V406.082H2258.73L2258.78 406.126Z" fill="white"/>
<path d="M449.828 377.844L593.534 294.882C601.153 290.475 605.861 282.301 605.861 273.53V107.604C605.861 98.8322 601.153 90.66 593.534 86.2528L449.828 3.28918C442.209 -1.11777 432.752 -1.07496 425.176 3.28918L281.467 86.2528C273.851 90.66 269.143 98.8322 269.143 107.604V404.116L168.359 462.263L67.5746 404.116V287.78L168.359 229.633L234.822 268.01V189.968L180.683 158.691C176.96 156.552 172.682 155.396 168.359 155.396C164.035 155.396 159.758 156.552 156.034 158.691L12.3253 241.654C4.70764 246.062 0 254.235 0 263.006V428.934C0 437.704 4.70764 445.875 12.3253 450.283L156.034 533.248C163.651 537.611 173.067 537.611 180.683 533.248L324.392 450.283C332.011 445.875 336.716 437.704 336.716 428.934V132.377L338.514 131.35L437.46 74.2298L538.244 132.377V248.715L437.46 306.862L371.081 268.567V346.612L425.133 377.803C432.752 382.167 442.209 382.167 449.784 377.803L449.828 377.844Z" fill="url(#paint0_linear_126_60)"/>
<defs>
<linearGradient id="paint0_linear_126_60" x1="-1.96865" y1="445.191" x2="579.779" y2="107.455" gradientUnits="userSpaceOnUse">
<stop stop-color="#A726C1"/>
<stop offset="0.88" stop-color="#803BDF"/>
<stop offset="1" stop-color="#7B3FE4"/>
</linearGradient>
</defs>
</svg>
