<svg width="2483" height="497" viewBox="0 0 2483 497" fill="none" xmlns="http://www.w3.org/2000/svg">
<path d="M179.216 92.4065L262.169 262.109L418.044 191.913L347.357 436.382L174.24 445.652L59.8017 241.665L179.216 92.4065ZM189.42 0L20.9526 210.571L0 236.769L16.4054 266.019L130.844 470.003L145.984 496.997L176.907 495.346L350.021 486.076L385.336 484.191L395.153 450.22L465.84 205.751L495.729 102.378L397.599 146.574L285.709 196.949L223.922 70.5638L189.42 0ZM624.408 402.761V67.6895H756.614C782.032 67.6895 803.684 72.5414 821.571 82.2504C839.459 91.849 853.098 105.208 862.474 122.333C871.97 139.347 876.715 158.984 876.715 181.234C876.715 203.481 871.91 223.118 862.311 240.132C852.711 257.147 838.807 270.4 820.595 279.889C802.485 289.379 780.557 294.123 754.813 294.123H670.553V237.353H743.359C757.001 237.353 768.231 235.007 777.064 230.315C786.014 225.516 792.662 218.918 797.028 210.519C801.496 202.011 803.737 192.25 803.737 181.234C803.737 170.107 801.496 160.401 797.028 152.109C792.662 143.713 786.014 137.225 777.064 132.642C768.118 127.953 756.777 125.607 743.033 125.607H695.261V402.761H624.408ZM1007.88 407.668C982.472 407.668 960.493 402.269 941.947 391.471C923.511 380.563 909.278 365.403 899.242 345.987C889.204 326.464 884.186 303.832 884.186 278.09C884.186 252.132 889.204 229.442 899.242 210.03C909.278 190.504 923.511 175.343 941.947 164.546C960.493 153.637 982.472 148.186 1007.88 148.186C1033.3 148.186 1055.23 153.637 1073.66 164.546C1092.2 175.343 1106.49 190.504 1116.53 210.03C1126.57 229.442 1131.59 252.132 1131.59 278.09C1131.59 303.832 1126.57 326.464 1116.53 345.987C1106.49 365.403 1092.2 380.563 1073.66 391.471C1055.23 402.269 1033.3 407.668 1007.88 407.668ZM1008.22 353.676C1019.77 353.676 1029.43 350.405 1037.18 343.86C1044.92 337.206 1050.76 328.155 1054.68 316.702C1058.72 305.25 1060.74 292.214 1060.74 277.598C1060.74 262.985 1058.72 249.949 1054.68 238.496C1050.76 227.044 1044.92 217.99 1037.18 211.336C1029.43 204.683 1019.77 201.357 1008.22 201.357C996.542 201.357 986.727 204.683 978.758 211.336C970.908 217.99 964.964 227.044 960.93 238.496C957.001 249.949 955.039 262.985 955.039 277.598C955.039 292.214 957.001 305.25 960.93 316.702C964.964 328.155 970.908 337.206 978.758 343.86C986.727 350.405 996.542 353.676 1008.22 353.676ZM1223.57 67.6895V402.761H1153.86V67.6895H1223.57ZM1299.4 497C1290.56 497 1282.28 496.29 1274.53 494.873C1266.89 493.563 1260.56 491.872 1255.55 489.8L1271.25 437.773C1279.44 440.282 1286.8 441.644 1293.34 441.862C1300 442.081 1305.72 440.555 1310.53 437.281C1315.43 434.01 1319.41 428.448 1322.47 420.593L1326.56 409.958L1236.41 151.455H1309.71L1361.74 336.007H1364.36L1416.88 151.457H1490.67L1392.99 429.918C1388.3 443.443 1381.92 455.224 1373.85 465.259C1365.88 475.402 1355.8 483.202 1343.58 488.653C1331.36 494.218 1316.63 497 1299.4 497ZM1504.61 402.761V67.6895H1574.31V193.667H1576.44C1579.49 186.904 1583.91 180.032 1589.69 173.053C1595.58 165.963 1603.22 160.072 1612.61 155.381C1622.09 150.584 1633.87 148.186 1647.94 148.186C1666.27 148.186 1683.17 152.983 1698.67 162.581C1714.16 172.072 1726.54 186.414 1735.81 205.612C1745.08 224.698 1749.72 248.639 1749.72 277.435C1749.72 305.468 1745.19 329.136 1736.14 348.443C1727.19 367.638 1714.97 382.201 1699.48 392.126C1684.1 401.943 1666.87 406.85 1647.78 406.85C1634.26 406.85 1622.75 404.615 1613.26 400.141C1603.87 395.671 1596.19 390.054 1590.19 383.29C1584.18 376.418 1579.6 369.492 1576.44 362.512H1573.33V402.761H1504.61ZM1572.84 277.109C1572.84 292.051 1574.91 305.084 1579.06 316.211C1583.21 327.337 1589.2 336.007 1597.06 342.224C1604.91 348.333 1614.46 351.386 1625.69 351.386C1637.04 351.386 1646.64 348.278 1654.49 342.061C1662.34 335.734 1668.29 327.008 1672.32 315.884C1676.46 304.648 1678.54 291.725 1678.54 277.109C1678.54 262.601 1676.53 249.839 1672.48 238.823C1668.45 227.807 1662.51 219.189 1654.65 212.972C1646.8 206.755 1637.15 203.647 1625.69 203.647C1614.35 203.647 1604.75 206.645 1596.9 212.646C1589.15 218.645 1583.21 227.154 1579.06 238.17C1574.91 249.186 1572.84 262.164 1572.84 277.109ZM1844.85 407.505C1828.82 407.505 1814.53 404.722 1801.99 399.16C1789.44 393.488 1779.51 385.144 1772.2 374.128C1765 363.004 1761.41 349.151 1761.41 332.573C1761.41 318.612 1763.96 306.886 1769.1 297.395C1774.23 287.907 1781.2 280.273 1790.04 274.49C1798.87 268.71 1808.91 264.347 1820.15 261.402C1831.49 258.456 1843.38 256.384 1855.82 255.185C1870.43 253.66 1882.21 252.239 1891.15 250.93C1900.1 249.512 1906.59 247.44 1910.62 244.713C1914.67 241.986 1916.68 237.952 1916.68 232.606V231.625C1916.68 221.264 1913.4 213.246 1906.86 207.573C1900.43 201.904 1891.26 199.066 1879.37 199.066C1866.83 199.066 1856.85 201.848 1849.43 207.41C1842.02 212.864 1837.11 219.736 1834.7 228.027L1770.24 222.789C1773.51 207.521 1779.95 194.322 1789.55 183.196C1799.15 171.961 1811.53 163.346 1826.69 157.345C1841.96 151.239 1859.63 148.186 1879.7 148.186C1893.67 148.186 1907.03 149.822 1919.79 153.093C1932.66 156.364 1944.06 161.437 1953.99 168.309C1964.02 175.18 1971.93 184.013 1977.71 194.814C1983.49 205.501 1986.38 218.318 1986.38 233.261V402.761H1920.28V367.911H1918.32C1914.28 375.764 1908.88 382.69 1902.12 388.689C1895.36 394.58 1887.23 399.216 1877.74 402.595C1868.25 405.869 1857.28 407.505 1844.85 407.505ZM1864.82 359.404C1875.07 359.404 1884.12 357.384 1891.98 353.35C1899.83 349.206 1905.99 343.644 1910.46 336.662C1914.93 329.68 1917.17 321.772 1917.17 312.939V286.271C1914.99 287.688 1911.99 288.998 1908.17 290.197C1904.47 291.289 1900.26 292.325 1895.57 293.306C1890.89 294.178 1886.2 294.996 1881.5 295.759C1876.81 296.414 1872.56 297.013 1868.74 297.558C1860.56 298.76 1853.42 300.669 1847.31 303.285C1841.2 305.905 1836.46 309.449 1833.08 313.92C1829.69 318.283 1828 323.737 1828 330.28C1828 339.77 1831.44 347.023 1838.31 352.041C1845.29 356.948 1854.13 359.404 1864.82 359.404ZM2226.53 223.118L2162.72 227.044C2161.63 221.59 2159.28 216.683 2155.68 212.317C2152.08 207.847 2147.34 204.302 2141.44 201.685C2135.67 198.958 2128.74 197.593 2120.67 197.593C2109.86 197.593 2100.76 199.884 2093.34 204.465C2085.92 208.936 2082.22 214.937 2082.22 222.463C2082.22 228.461 2084.62 233.534 2089.41 237.679C2094.22 241.823 2102.45 245.15 2114.12 247.658L2159.61 256.82C2184.04 261.838 2202.26 269.909 2214.26 281.035C2226.26 292.159 2232.26 306.775 2232.26 324.881C2232.26 341.354 2227.4 355.804 2217.7 368.237C2208.1 380.673 2194.9 390.38 2178.1 397.362C2161.4 404.233 2142.15 407.668 2120.34 407.668C2087.07 407.668 2060.56 400.744 2040.82 386.89C2021.19 372.929 2009.68 353.95 2006.3 329.954L2074.86 326.353C2076.92 336.499 2081.94 344.244 2089.9 349.587C2097.87 354.823 2108.07 357.44 2120.5 357.44C2132.72 357.44 2142.54 355.097 2149.95 350.405C2157.48 345.606 2161.3 339.442 2161.4 331.918C2161.3 325.591 2158.63 320.41 2153.39 316.374C2148.15 312.229 2140.09 309.066 2129.17 306.886L2085.66 298.213C2061.11 293.306 2042.84 284.798 2030.84 272.691C2018.95 260.584 2013 245.15 2013 226.389C2013 210.248 2017.37 196.339 2026.09 184.668C2034.93 172.998 2047.31 163.999 2063.24 157.674C2079.27 151.347 2098.04 148.186 2119.52 148.186C2151.26 148.186 2176.25 154.892 2194.46 168.309C2212.78 181.723 2223.47 199.994 2226.53 223.118ZM2367.64 407.668C2341.79 407.668 2319.54 402.435 2300.88 391.963C2282.35 381.381 2268.05 366.439 2258.02 347.134C2247.98 327.718 2242.96 304.758 2242.96 278.253C2242.96 252.403 2247.98 229.716 2258.02 210.193C2268.05 190.669 2282.18 175.454 2300.39 164.546C2318.72 153.637 2340.21 148.186 2364.86 148.186C2381.45 148.186 2396.88 150.858 2411.16 156.201C2425.57 161.435 2438.11 169.345 2448.8 179.924C2459.6 190.504 2468 203.813 2474 219.844C2480 235.769 2483 254.42 2483 275.799V294.941H2270.78V251.748H2417.38C2417.38 241.715 2415.2 232.824 2410.84 225.082C2406.48 217.338 2400.42 211.284 2392.68 206.921C2385.04 202.448 2376.15 200.213 2366.01 200.213C2355.43 200.213 2346.04 202.666 2337.87 207.576C2329.79 212.373 2323.46 218.863 2318.88 227.044C2314.3 235.117 2311.96 244.114 2311.85 254.038V295.104C2311.85 307.54 2314.14 318.283 2318.72 327.337C2323.41 336.389 2330.01 343.371 2338.52 348.278C2347.03 353.187 2357.12 355.641 2368.79 355.641C2376.53 355.641 2383.62 354.55 2390.06 352.37C2396.49 350.187 2402 346.915 2406.58 342.553C2411.16 338.19 2414.65 332.844 2417.05 326.519L2481.52 330.771C2478.25 346.261 2471.54 359.785 2461.4 371.348C2451.36 382.801 2438.38 391.742 2422.45 398.18C2406.64 404.504 2388.37 407.668 2367.64 407.668Z" fill="white"/>
</svg>
