<svg width="2482" height="845" viewBox="0 0 2482 845" fill="none" xmlns="http://www.w3.org/2000/svg">
<path d="M130.098 542.593C125.055 542.593 121.021 542.593 115.978 537.55L41.3465 462.919C39.3294 460.901 38.3209 459.893 38.3209 457.876C37.3123 456.867 36.3037 452.833 37.3123 448.799C37.3123 446.782 38.3208 445.774 39.3293 444.765C40.3378 443.756 41.3464 442.748 42.355 441.739C44.372 439.722 45.3807 437.705 46.3892 436.697C64.5428 419.552 81.6878 402.406 99.8415 386.27C140.183 346.937 180.524 307.604 220.866 268.271C220.866 266.254 223.892 254.151 232.968 251.126C235.994 250.117 240.028 250.117 242.045 250.117C247.088 250.117 251.122 250.117 256.165 255.16L334.83 329.792C337.856 333.826 340.882 338.869 339.873 343.911C338.865 348.954 333.822 351.98 331.805 352.988C322.728 358.031 294.489 386.27 241.037 442.748C208.763 474.012 177.499 505.277 145.226 535.533C144.217 536.542 143.209 539.567 140.183 541.584C137.157 542.593 134.132 542.593 130.098 542.593Z" fill="#AF145B"/>
<path d="M333.826 180.528L180.528 32.2731C157.332 14.1195 129.093 -2.5357e-06 96.8196 -1.90177e-06C64.5464 -1.26785e-06 32.2732 14.1195 9.07684 37.3158C1.64615e-05 42.3585 9.11266e-07 46.3927 1.01032e-06 51.4353C1.10937e-06 56.478 1.18861e-06 60.5122 5.04268 65.5549L213.81 265.245C218.852 270.288 222.887 270.288 222.887 274.322C269.279 325.757 274.322 399.38 231.963 450.816L333.826 352.988C357.022 334.834 371.141 301.552 371.141 269.279C371.141 237.006 357.022 203.724 333.826 180.528Z" fill="url(#paint0_linear_126_40)"/>
<path d="M153.302 515.363C106.909 463.928 101.866 390.304 148.259 338.869L46.3969 436.697C23.2006 459.893 9.08106 492.167 9.08106 524.44C9.08106 556.713 23.2006 588.986 46.397 612.182L269.283 839.103C274.326 844.146 278.36 844.146 283.403 844.146C288.446 844.146 292.48 844.146 297.522 839.103C320.719 815.907 334.838 783.634 334.838 751.36C334.838 719.087 320.719 686.814 297.522 663.618L158.344 524.44C157.336 519.397 153.302 519.397 153.302 515.363Z" fill="url(#paint1_linear_126_40)"/>
<path d="M754.377 388.287C761.437 370.133 771.523 357.022 787.659 347.945C802.787 338.868 820.941 334.834 839.095 334.834L839.095 414.509C816.907 411.483 797.745 416.525 779.591 427.619C762.446 438.713 754.377 457.876 754.377 485.106L754.377 618.233L682.771 618.233L682.771 339.877L754.377 339.877L754.377 388.287ZM1162.83 584.951C1134.6 613.19 1099.3 627.31 1057.95 627.31C1016.6 627.31 982.307 613.19 953.059 584.951C924.82 556.712 910.701 521.413 910.701 480.063C910.701 438.713 924.82 404.423 953.059 376.184C981.298 347.945 1016.6 332.817 1057.95 332.817C1099.3 332.817 1133.59 346.937 1162.83 376.184C1191.07 404.423 1206.2 438.713 1206.2 480.063C1206.2 521.413 1192.08 555.704 1162.83 584.951ZM1004.49 535.533C1018.61 549.652 1036.77 557.721 1058.96 557.721C1081.14 557.721 1098.29 550.661 1113.42 535.533C1127.54 521.413 1135.6 502.251 1135.6 480.063C1135.6 457.876 1128.54 439.722 1113.42 424.594C1099.3 410.474 1081.14 402.406 1058.96 402.406C1036.77 402.406 1019.62 409.466 1004.49 424.594C990.375 438.713 983.315 457.876 983.315 480.063C983.315 502.251 990.375 520.405 1004.49 535.533ZM1495.65 340.885L1567.26 340.885L1567.26 619.241L1495.65 619.241L1495.65 587.977C1478.51 614.199 1450.27 627.31 1412.95 627.31C1382.7 627.31 1357.48 617.224 1337.31 597.054C1317.14 576.883 1308.06 548.644 1308.06 512.337L1308.06 341.894L1379.67 341.894L1379.67 504.268C1379.67 522.422 1384.71 537.55 1394.8 547.635C1404.88 557.721 1417.99 561.755 1435.14 561.755C1453.29 561.755 1468.42 555.704 1479.52 544.61C1490.61 533.516 1496.66 515.362 1496.66 493.174L1495.65 340.885ZM1848.64 409.466L1785.1 409.466L1785.1 525.448C1785.1 535.533 1787.12 542.593 1792.16 546.627C1797.2 550.661 1804.26 553.686 1813.34 554.695C1822.42 554.695 1834.52 554.695 1847.63 553.686L1847.63 619.241C1798.21 625.292 1762.91 620.25 1742.74 605.122C1722.57 589.994 1712.49 563.772 1712.49 525.448L1712.49 409.466L1664.08 409.466L1664.08 340.885L1712.49 340.885L1712.49 284.407L1784.09 262.219L1784.09 339.877L1846.62 339.877L1846.62 409.466L1848.64 409.466ZM2006.98 509.311C2017.06 544.61 2043.29 561.755 2085.65 561.755C2112.88 561.755 2134.06 552.678 2148.17 533.516L2205.66 566.797C2178.43 606.13 2138.09 626.301 2084.64 626.301C2038.24 626.301 2001.94 612.182 1973.7 584.951C1945.46 556.712 1932.35 522.422 1932.35 480.063C1932.35 437.705 1946.47 403.415 1973.7 375.175C2000.93 346.936 2036.23 332.817 2079.59 332.817C2119.94 332.817 2154.23 346.936 2180.45 375.175C2206.67 403.415 2220.79 438.713 2220.79 480.063C2220.79 489.14 2219.78 499.225 2217.76 509.311L2006.98 509.311ZM2005.97 453.841L2148.17 453.841C2144.14 434.679 2135.06 420.56 2122.96 411.483C2109.85 402.406 2095.73 397.363 2079.59 397.363C2060.43 397.363 2044.3 402.406 2032.19 412.491C2018.07 422.577 2010.01 435.688 2005.97 453.841ZM2397.28 388.286C2404.34 370.133 2414.43 357.022 2430.56 347.945C2445.69 338.868 2463.85 334.834 2482 334.834L2482 414.508C2459.81 411.483 2440.65 416.525 2422.5 427.619C2405.35 438.713 2397.28 457.876 2397.28 485.106L2397.28 618.233L2325.68 618.233L2325.68 339.877L2397.28 339.877L2397.28 388.286Z" fill="#CB0766"/>
<defs>
<linearGradient id="paint0_linear_126_40" x1="4.42757e-06" y1="225.408" x2="371.141" y2="225.408" gradientUnits="userSpaceOnUse">
<stop stop-color="#CB0766"/>
<stop offset="1" stop-color="#E04391"/>
</linearGradient>
<linearGradient id="paint1_linear_126_40" x1="5.46041" y1="591.507" x2="333.325" y2="591.507" gradientUnits="userSpaceOnUse">
<stop stop-color="#CB0766"/>
<stop offset="1" stop-color="#E04391"/>
</linearGradient>
</defs>
</svg>
