<svg width="2580" height="317" viewBox="0 0 2580 317" fill="none" xmlns="http://www.w3.org/2000/svg">
<path fill-rule="evenodd" clip-rule="evenodd" d="M1890.16 204.646L1864.08 247.18C1882.94 265.638 1909.02 276.873 1945.14 276.873C1996.1 276.873 2025.79 247.18 2025.79 203.843C2025.79 156.494 1988.07 141.647 1959.18 130.411C1941.13 123.189 1926.28 117.571 1926.28 105.934C1926.28 95.5012 1933.5 88.2785 1947.55 88.2785C1964.8 88.2785 1982.46 94.2975 1996.5 107.138L2021.78 65.8076C2003.32 48.9544 1978.04 39.7253 1949.55 39.7253C1898.59 39.7253 1870.9 73.4316 1870.9 109.947C1870.9 158.5 1907.82 172.143 1936.71 183.379C1955.17 190.2 1970.42 196.219 1970.42 209.06C1970.42 220.295 1960.79 228.722 1944.74 228.722C1923.07 229.123 1903.41 219.091 1890.16 204.646ZM841.255 272.861V92.2911H793.104V43.7379H943.578V92.2911H895.828V272.861H841.255ZM1151.03 272.861L1121.34 194.213H1101.28V272.861H1046.7V43.7379H1138.19C1181.93 43.7379 1210.02 75.8392 1210.02 118.373C1210.02 157.296 1190.36 176.958 1173.5 184.181L1211.62 272.861H1151.03ZM1154.64 119.176C1154.64 102.323 1144.21 92.2911 1129.77 92.2911H1101.28V146.061H1129.77C1144.21 146.061 1154.64 136.029 1154.64 119.176ZM1428.71 237.951L1437.14 272.861H1496.12L1429.91 43.7379H1364.1L1297.9 272.861H1356.88L1365.31 237.951H1428.71ZM1376.14 189.398L1397.41 101.52L1418.28 189.398H1376.14ZM1712.8 272.861L1644.59 152.481V272.861H1590.02V43.7379H1645.39L1709.59 158.5V43.7379H1763.77V272.861H1712.8ZM2248.49 272.861L2240.07 237.951H2176.27L2167.84 272.861H2108.85L2175.06 43.7379H2240.87L2307.08 272.861H2248.49ZM2208.37 101.52L2187.1 189.398H2229.23L2208.37 101.52ZM2469.99 189.398L2514.94 273.262H2579.14L2504.5 151.277L2574.72 44.1392H2511.32L2455.95 140.844V44.1392H2401.38V273.262H2455.95V213.473L2469.99 189.398Z" fill="#006DEC"/>
<path d="M548.33 133.622L425.542 10.4329L425.141 10.0316C424.339 9.22911 423.937 8.82785 423.135 8.02532C422.734 7.62405 422.332 7.62412 421.931 7.22286C421.53 6.82159 420.727 6.42025 420.326 6.01899C419.925 5.61772 419.523 5.61779 419.122 5.21653C418.721 4.81526 417.918 4.41395 417.517 4.41395C417.116 4.01268 416.715 4.01263 416.313 3.61137C415.912 3.2101 415.11 3.21018 414.708 2.80891C414.307 2.80891 413.906 2.40762 413.504 2.40762C412.702 2.00635 412.301 2.0063 411.498 1.60504C411.097 1.60504 410.696 1.20387 410.294 1.20387C409.492 1.20387 409.09 0.802581 408.288 0.802581C407.887 0.802581 407.485 0.802556 406.683 0.40129C405.88 0.40129 405.479 0 404.677 0C403.874 0 403.072 0 402.269 0C401.868 0 401.466 0 401.065 0C400.664 0 400.664 0 400.263 0C399.46 0 398.658 0 397.855 0C397.454 0 396.651 2.44853e-05 396.25 0.40129C395.849 0.40129 395.046 0.401315 394.645 0.802581C393.842 0.802581 393.441 1.20387 393.04 1.20387C392.639 1.20387 391.836 1.60504 391.435 1.60504C391.034 1.60504 390.231 2.00633 389.83 2.00633C389.428 2.00633 388.626 2.40762 388.225 2.40762C387.823 2.80889 387.422 2.80893 386.62 3.2102C386.218 3.61147 385.416 3.61139 385.015 4.01266C384.613 4.41392 384.212 4.41397 383.811 4.81524C383.409 5.2165 382.607 5.61772 382.206 6.01899C381.804 6.42025 381.403 6.82157 381.002 6.82157C380.601 7.22283 380.199 7.62405 379.397 8.02532C378.594 8.42658 378.193 9.22911 377.391 10.0316L376.989 10.4329L191.203 196.219V35.3115C191.203 16.0507 175.554 0 155.892 0C136.631 0 120.58 15.6494 120.58 35.3115V197.423L59.9892 136.832C46.3462 123.189 23.8753 123.189 10.2323 136.832C-3.41076 150.475 -3.41076 172.946 10.2323 186.589L130.211 306.567C137.032 313.389 146.261 317 155.089 317H155.49H155.892C167.528 317 177.961 311.382 184.382 302.153L366.556 119.978V281.689C366.556 300.949 382.206 317 401.868 317C421.128 317 437.179 301.351 437.179 281.689V119.978L499.777 182.576C513.42 196.219 535.89 196.219 549.534 182.576C561.973 169.334 561.973 147.265 548.33 133.622Z" fill="#006DEC"/>
</svg>
